<?xml version="1.0" encoding="utf-8"?>
<!-- Generator: Adobe Illustrator 23.0.3, SVG Export Plug-In . SVG Version: 6.00 Build 0)  -->
<svg version="1.1" id="Layer_1" xmlns="http://www.w3.org/2000/svg" xmlns:xlink="http://www.w3.org/1999/xlink" x="0px" y="0px"
	 viewBox="0 0 50 50" style="enable-background:new 0 0 50 50;" xml:space="preserve">
<style type="text/css">
	.st0{fill:url(#SVGID_1_);}
	.st1{fill:url(#SVGID_2_);}
	.st2{fill:url(#SVGID_3_);}
	.st3{fill:url(#SVGID_4_);}
	.st4{fill:url(#SVGID_5_);}
	.st5{fill:url(#SVGID_6_);}
	.st6{fill:url(#SVGID_7_);}
	.st7{fill:url(#SVGID_8_);}
	.st8{fill:url(#SVGID_9_);}
	.st9{fill:url(#SVGID_10_);}
	.st10{fill:url(#SVGID_11_);}
	.st11{fill:url(#SVGID_12_);}
	.st12{fill:url(#SVGID_13_);}
	.st13{fill:url(#SVGID_14_);}
	.st14{fill:url(#SVGID_15_);}
	.st15{fill:url(#SVGID_16_);}
	.st16{fill:url(#SVGID_17_);}
	.st17{fill:url(#SVGID_18_);}
	.st18{fill:url(#SVGID_19_);}
	.st19{fill:url(#SVGID_20_);}
	.st20{fill:url(#SVGID_21_);}
	.st21{fill:url(#SVGID_22_);}
	.st22{fill:url(#SVGID_23_);}
	.st23{fill:url(#SVGID_24_);}
	.st24{fill:url(#SVGID_25_);}
	.st25{fill:url(#SVGID_26_);}
	.st26{fill:url(#SVGID_27_);}
	.st27{fill:url(#SVGID_28_);}
	.st28{fill:url(#SVGID_29_);}
	.st29{fill:url(#SVGID_30_);}
	.st30{fill:url(#SVGID_31_);}
	.st31{fill:url(#SVGID_32_);}
	.st32{fill:url(#SVGID_33_);}
	.st33{fill:url(#SVGID_34_);}
	.st34{fill:url(#SVGID_35_);}
	.st35{fill:url(#SVGID_36_);}
	.st36{fill:url(#SVGID_37_);}
	.st37{fill:url(#SVGID_38_);}
	.st38{fill:url(#SVGID_39_);}
	.st39{fill:url(#SVGID_40_);}
	.st40{fill:url(#SVGID_41_);}
	.st41{fill:url(#SVGID_42_);}
	.st42{fill:url(#SVGID_43_);}
	.st43{fill:url(#SVGID_44_);}
	.st44{fill:url(#SVGID_45_);}
	.st45{fill:url(#SVGID_46_);}
	.st46{fill:url(#SVGID_47_);}
	.st47{fill:url(#SVGID_48_);}
	.st48{fill:url(#SVGID_49_);}
	.st49{fill:url(#SVGID_50_);}
	.st50{fill:url(#SVGID_51_);}
	.st51{fill:url(#SVGID_52_);}
	.st52{fill:url(#SVGID_53_);}
	.st53{fill:url(#SVGID_54_);}
	.st54{fill:url(#SVGID_55_);}
	.st55{fill:url(#SVGID_56_);}
	.st56{fill:url(#SVGID_57_);}
	.st57{fill:url(#SVGID_58_);}
	.st58{fill:url(#SVGID_59_);}
	.st59{fill:url(#SVGID_60_);}
	.st60{fill:url(#SVGID_61_);}
	.st61{fill:url(#SVGID_62_);}
	.st62{fill:url(#SVGID_63_);}
	.st63{fill:url(#SVGID_64_);}
	.st64{fill:url(#SVGID_65_);}
	.st65{fill:url(#SVGID_66_);}
	.st66{fill:url(#SVGID_67_);}
	.st67{fill:url(#SVGID_68_);}
	.st68{fill:url(#SVGID_69_);}
	.st69{fill:url(#SVGID_70_);}
	.st70{fill:url(#SVGID_71_);}
	.st71{fill:url(#SVGID_72_);}
	.st72{fill:url(#SVGID_73_);}
	.st73{fill:#222B39;}
	.st74{fill:#43D3E8;}
	.st75{fill:#FD0134;}
	.st76{fill:url(#SVGID_74_);}
	.st77{fill:url(#SVGID_75_);}
	.st78{fill:url(#SVGID_76_);}
	.st79{fill:#FFFFFF;}
</style>
<g>
	<g>
		<g>
			<g>
				<path d="M43.5,7.2c-2.6-2.6-6.1-4-9.7-4c-3.7,0-7.1,1.4-9.7,4c-2,2-3.3,4.5-3.8,7.3c-0.4,2.5-0.2,5,0.7,7.3l-1.4,1.4l-3.3,1
					c-0.3,0.1-0.6,0.4-0.7,0.7L14.5,28l-3.1,0.9c-0.3,0.1-0.6,0.4-0.7,0.7l-0.9,3.1l-3.1,0.9c-0.3,0.1-0.6,0.4-0.7,0.7l-0.9,3.1
					l-3.1,0.9c-0.5,0.1-0.8,0.6-0.7,1.1l0.9,7.6c0.1,0.4,0.4,0.8,0.8,0.9l6.5,1.1c0.1,0,0.1,0,0.2,0c0.3,0,0.5-0.1,0.7-0.3
					l18.5-18.5c5,1.8,10.5,0.5,14.3-3.3c2.6-2.6,4-6.1,4-9.7S46.1,9.8,43.5,7.2z M42.1,25.3c-3.4,3.4-8.4,4.4-12.8,2.6
					c-0.4-0.2-0.8-0.1-1.1,0.2L9.6,46.7l-5.2-0.9l-0.8-6L6.4,39c0.3-0.1,0.6-0.4,0.7-0.7l0.9-3.1l3.1-0.9c0.3-0.1,0.6-0.4,0.7-0.7
					l0.9-3.1l3.1-0.9c0.3-0.1,0.6-0.4,0.7-0.7l0.9-3.1l3.1-0.9c0.2,0,0.3-0.1,0.4-0.3l2.1-2.1c0.3-0.3,0.4-0.7,0.2-1.1
					c-2-4.5-1-9.6,2.4-13.1c2.2-2.2,5.2-3.4,8.3-3.4c3.1,0,6.1,1.2,8.3,3.4C46.6,13.2,46.6,20.7,42.1,25.3z"/>
				<path d="M42.9,16c-0.2-2.1-1.2-4.1-2.6-5.6c-1.5-1.5-3.5-2.4-5.6-2.6c-1.4-0.1-2.6,0.6-3.2,1.8c-0.6,1.3-0.4,2.7,0.6,3.7
					l5.3,5.3c0.6,0.6,1.4,1,2.3,1c0.5,0,1-0.1,1.4-0.3C42.3,18.6,43,17.3,42.9,16z M40.2,17.4c-0.4,0.2-1,0.2-1.4-0.2l-5.3-5.3
					c-0.5-0.5-0.4-1-0.2-1.4c0.1-0.2,0.4-0.7,1.1-0.7c0,0,0.1,0,0.1,0c1.6,0.2,3.2,0.9,4.3,2.1c1.2,1.2,1.9,2.7,2.1,4.3
					C41,17,40.4,17.3,40.2,17.4z"/>
				<path d="M19.4,29.3L7.9,40.8c-0.4,0.4-0.4,1,0,1.4c0.2,0.2,0.5,0.3,0.7,0.3s0.5-0.1,0.7-0.3l11.5-11.5c0.4-0.4,0.4-1,0-1.4
					C20.4,28.9,19.8,28.9,19.4,29.3z"/>
				<path d="M22.7,26l-0.1,0.1c-0.4,0.4-0.4,1,0,1.4c0.2,0.2,0.5,0.3,0.7,0.3c0.3,0,0.5-0.1,0.7-0.3l0.1-0.1c0.4-0.4,0.4-1,0-1.4
					C23.8,25.6,23.1,25.6,22.7,26z"/>
			</g>
		</g>
	</g>
</g>
</svg>
