<?xml version="1.0" encoding="UTF-8" standalone="no"?> <svg height="596pt" viewBox="-19 -37 596 596" width="596pt" xmlns="http://www.w3.org/2000/svg"><path d="m377.308594 373.078125-17.308594-5.769531v-184.808594c0-6.210938-5.039062-11.25-11.25-11.25s-11.25 5.039062-11.25 11.25v5h-29.289062c-4.886719-14.898438-18.78125-24.980469-34.460938-25h-162.5c-15.679688.019531-29.574219 10.101562-34.460938 25h-29.289062v-5c0-6.210938-5.039062-11.25-11.25-11.25s-11.25 5.039062-11.25 11.25v184.808594l-17.308594 5.769531c-4.589844 1.53125-7.691406 5.828125-7.691406 10.671875v125c0 6.210938 5.039062 11.25 11.25 11.25h362.5c6.210938 0 11.25-5.039062 11.25-11.25v-125c0-4.84375-3.101562-9.140625-7.691406-10.671875zm-329.808594-163.078125h38.75c6.210938 0 11.25-5.039062 11.25-11.25.007812-7.585938 6.164062-13.742188 13.75-13.75h162.5c7.585938.007812 13.742188 6.164062 13.75 13.75 0 6.210938 5.039062 11.25 11.25 11.25h38.75v149.808594l-27.5-9.167969v-39.390625c0-6.210938-5.039062-11.25-11.25-11.25h-45v-35c-.015625-13.109375-10.640625-23.734375-23.75-23.75h-75c-13.109375.015625-23.734375 10.640625-23.75 23.75v35h-45c-6.210938 0-11.25 5.039062-11.25 11.25v39.390625l-27.5 9.167969zm183.75 90h-77.5v-35c0-.6875.5625-1.25 1.25-1.25h75c.6875 0 1.25.5625 1.25 1.25zm56.25 22.5v25h-190v-25zm-265 69.359375 65.578125-21.859375h208.84375l65.578125 21.859375v68.140625h-340zm0 105.640625v-15h340v15zm0 0"/><path d="m547.5 343.75h-57.5v-41.25h37.5c3.304688 0 6.445312-1.453125 8.585938-3.980469 2.136718-2.519531 3.054687-5.859375 2.511718-9.121093l-12.5-75c-.902344-5.421876-5.597656-9.398438-11.097656-9.398438h-75c-5.5 0-10.195312 3.976562-11.097656 9.398438l-12.5 75c-.542969 3.261718.375 6.601562 2.511718 9.121093 2.140626 2.527344 5.28125 3.980469 8.585938 3.980469h40v41.25h-57.5c-6.210938 0-11.25 5.039062-11.25 11.25v37.5c0 6.210938 5.039062 11.25 11.25 11.25h13.75v67.5c0 6.210938 5.039062 11.25 11.25 11.25s11.25-5.039062 11.25-11.25v-67.5h65v67.5c0 6.210938 5.039062 11.25 11.25 11.25s11.25-5.039062 11.25-11.25v-67.5h13.75c6.210938 0 11.25-5.039062 11.25-11.25v-37.5c0-6.210938-5.039062-11.25-11.25-11.25zm-97.96875-116.25h55.9375l8.75 52.5h-73.4375zm86.71875 153.75h-115v-15h115zm0 0"/><path d="m409.375 10v113.75c0 6.210938 5.039062 11.25 11.25 11.25h113.75c6.210938 0 11.25-5.039062 11.25-11.25v-113.75c0-6.210938-5.039062-11.25-11.25-11.25h-113.75c-6.210938 0-11.25 5.039062-11.25 11.25zm22.5 11.25h91.25v91.25h-91.25zm0 0"/></svg>