<?xml version="1.0" ?><svg width="32px" height="32px" viewBox="0 0 32 32" id="Home" xmlns="http://www.w3.org/2000/svg"><defs><style>.cls-1{fill:#005792;}.cls-2{fill:none;}</style></defs><title/><path class="cls-1" d="M25.6,14.28V25.14a2.35,2.35,0,0,1-2.4,2.29H8.8a2.35,2.35,0,0,1-2.4-2.29H22A1.17,1.17,0,0,0,23.2,24V11.86Z"/><path class="cls-2" d="M7,14.51V25.14a1.76,1.76,0,0,0,1.8,1.72h3.6v-4a2.94,2.94,0,0,1,3-2.86h1.2a2.94,2.94,0,0,1,3,2.86v4h3.6A1.76,1.76,0,0,0,25,25.14V14.51L16,5.4Z"/><path class="cls-2" d="M16.6,21.14H15.4a1.76,1.76,0,0,0-1.8,1.72v4h4.8v-4A1.76,1.76,0,0,0,16.6,21.14Z"/><path d="M27.84,15.6,17,4.74a1.05,1.05,0,0,0-.11-.07l-.49-.5a.65.65,0,0,0-.88,0l-.49.5a1.05,1.05,0,0,0-.11.07L4.16,15.6a.56.56,0,0,0,0,.81.57.57,0,0,0,.41.16A.62.62,0,0,0,5,16.39l.76-.77v9.52A2.94,2.94,0,0,0,8.8,28H23.2a2.94,2.94,0,0,0,3-2.86V15.62l.76.77a.62.62,0,0,0,.44.18.57.57,0,0,0,.41-.16A.56.56,0,0,0,27.84,15.6ZM18.4,26.86H13.6v-4a1.76,1.76,0,0,1,1.8-1.72h1.2a1.76,1.76,0,0,1,1.8,1.72ZM25,25.14a1.76,1.76,0,0,1-1.8,1.72H19.6v-4a2.94,2.94,0,0,0-3-2.86H15.4a2.94,2.94,0,0,0-3,2.86v4H8.8A1.76,1.76,0,0,1,7,25.14V14.51L16,5.4l9,9.11Z"/></svg>